<svg width="107" height="31" viewBox="0 0 107 31" fill="none" xmlns="http://www.w3.org/2000/svg">
<path fill-rule="evenodd" clip-rule="evenodd" d="M25.0598 8.82548C27.3313 8.82548 29.1727 6.98504 29.1727 4.71474C29.1727 2.44445 27.3313 0.604004 25.0598 0.604004C22.7883 0.604004 20.9469 2.44445 20.9469 4.71474C20.9469 6.98504 22.7883 8.82548 25.0598 8.82548Z" fill="#FF2D33"/>
<path fill-rule="evenodd" clip-rule="evenodd" d="M25.0598 19.6106C27.3313 19.6106 29.1727 17.7702 29.1727 15.4999C29.1727 13.2296 27.3313 11.3892 25.0598 11.3892C22.7883 11.3892 20.9469 13.2296 20.9469 15.4999C20.9469 17.7702 22.7883 19.6106 25.0598 19.6106Z" fill="#D53D5C"/>
<path fill-rule="evenodd" clip-rule="evenodd" d="M25.0598 30.3958C27.3313 30.3958 29.1727 28.5554 29.1727 26.2851C29.1727 24.0147 27.3313 22.1743 25.0598 22.1743C22.7883 22.1743 20.9469 24.0147 20.9469 26.2851C20.9469 28.5554 22.7883 30.3958 25.0598 30.3958Z" fill="#815EAD"/>
<path fill-rule="evenodd" clip-rule="evenodd" d="M14.5866 19.6106C16.8581 19.6106 18.6995 17.7702 18.6995 15.4999C18.6995 13.2296 16.8581 11.3892 14.5866 11.3892C12.3151 11.3892 10.4737 13.2296 10.4737 15.4999C10.4737 17.7702 12.3151 19.6106 14.5866 19.6106Z" fill="#AB4D85"/>
<path fill-rule="evenodd" clip-rule="evenodd" d="M14.5866 30.3958C16.8581 30.3958 18.6995 28.5554 18.6995 26.2851C18.6995 24.0148 16.8581 22.1743 14.5866 22.1743C12.3151 22.1743 10.4737 24.0148 10.4737 26.2851C10.4737 28.5554 12.3151 30.3958 14.5866 30.3958Z" fill="#576ED6"/>
<path fill-rule="evenodd" clip-rule="evenodd" d="M4.11298 30.3958C6.38447 30.3958 8.22588 28.5554 8.22588 26.2851C8.22588 24.0147 6.38447 22.1743 4.11298 22.1743C1.84148 22.1743 6.10352e-05 24.0147 6.10352e-05 26.2851C6.10352e-05 28.5554 1.84148 30.3958 4.11298 30.3958Z" fill="#2D7EFF"/>
<path d="M49.8277 24.2842C47.3922 24.2842 45.494 22.4218 45.494 19.4133C45.494 16.5123 47.3922 14.6499 49.8277 14.6499C52.1556 14.6499 54.0897 16.5481 54.0897 19.4133C54.0897 22.386 52.1556 24.2842 49.8277 24.2842ZM45.2433 26.075C46.5685 28.2597 49.2188 29.0834 51.0454 29.0834C55.7014 29.0834 59.5694 25.1438 59.5694 19.485C59.5694 14.0052 55.9521 9.85067 50.9379 9.85067C48.9323 9.85067 46.8192 10.6744 45.6373 12.501V3.1174H40.1934V28.6537H45.2433V26.075Z" fill="#19213D"/>
<path d="M68.9037 10.2804H63.4956V28.6537H68.9754V21.2399C68.9754 17.4077 70.8736 15.0081 74.0253 15.0081C74.5625 15.0081 74.9565 15.0797 75.243 15.1871V9.99393C74.9565 9.88648 74.5267 9.85067 74.0969 9.85067C71.6615 9.85067 69.8708 11.2116 68.9037 13.468V10.2804Z" fill="#19213D"/>
<path d="M78.4387 28.6537H83.8826V10.2804H78.4387V28.6537ZM81.089 2.15039C79.4057 2.15039 78.0806 3.36811 78.0806 5.05142C78.0806 6.73474 79.4057 7.98827 81.089 7.98827C82.7724 7.98827 84.1333 6.73474 84.1333 5.05142C84.1333 3.36811 82.7724 2.15039 81.089 2.15039Z" fill="#19213D"/>
<path d="M93.0527 19.4491L86.7492 28.6537H92.8378L96.2761 23.1739L99.7144 28.6537H105.803L99.4995 19.4491L105.803 10.2804H99.6069L96.2761 15.796L92.9453 10.2804H86.7492L93.0527 19.4491Z" fill="#19213D"/>
</svg>
