<svg width="305" height="42" viewBox="0 0 305 42" fill="none" xmlns="http://www.w3.org/2000/svg">
<path d="M62.3683 33.7983V31.2678C63.8143 33.6898 66.5616 34.2321 68.116 34.2321C72.7431 34.2321 76.6833 30.2918 76.6833 24.508C76.6833 18.9772 73.1407 14.7477 67.9353 14.7477C66.164 14.7477 64.1396 15.3623 62.8744 17.2782V7.95172H56.5845V33.7983H62.3683ZM62.7298 24.4357C62.7298 21.833 64.3927 20.2424 66.5978 20.2424C68.6582 20.2424 70.3573 21.833 70.3573 24.4357C70.3573 27.0384 68.6582 28.7374 66.5978 28.7374C64.3927 28.7374 62.7298 27.0746 62.7298 24.4357Z" fill="white"/>
<path d="M92.5005 14.8923C92.2113 14.7839 91.8137 14.7477 91.3437 14.7477C88.8856 14.7477 87.0782 16.0853 86.1021 18.3626V15.1815H79.8483V33.7983H86.1383V26.9661C86.1383 23.062 87.9096 20.64 91.0907 20.64C91.7414 20.64 92.2113 20.7123 92.5005 20.8569V14.8923Z" fill="white"/>
<path d="M94.9222 33.7983H101.212V15.1815H94.9222V33.7983ZM94.6692 9.97607C94.6692 11.8558 96.1151 13.2295 98.031 13.2295C99.9469 13.2295 101.429 11.8558 101.429 9.97607C101.429 8.09632 99.9469 6.72266 98.031 6.72266C96.1151 6.72266 94.6692 8.09632 94.6692 9.97607Z" fill="white"/>
<path d="M109.845 24.5803L103.446 33.7983H110.423L113.46 28.882L116.496 33.7983H123.473L117.075 24.5803L123.617 15.1815H116.46L113.46 20.3508L110.459 15.1815H103.302L109.845 24.5803Z" fill="white"/>
<path d="M130.864 18.8326H133.25V26.2793C133.25 30.6172 135.708 33.003 139.757 33.003C141.601 33.003 143.01 32.6054 143.986 32.1354V26.8215C143.227 27.3638 142.324 27.5083 141.564 27.5083C140.408 27.5083 139.54 26.8215 139.54 25.231V18.8326H143.48V13.9525H139.54V8.92775H133.431V13.9525H130.864V18.8326Z" fill="white"/>
<path d="M163.324 24.761C163.504 24.1826 163.685 23.062 163.685 22.086C163.685 16.989 160.07 13.5187 154.756 13.5187C149.262 13.5187 145.068 17.7843 145.068 23.2789C145.068 28.7736 149.153 33.003 155.515 33.003C158.66 33.003 161.118 32.2077 163.577 30.0026L160.395 26.0262C159.492 26.8938 158.01 27.7614 155.985 27.7614C153.853 27.7614 151.828 26.8577 151.539 24.761H163.324ZM154.612 18.5072C156.238 18.5072 157.504 19.5194 157.612 21.11V21.1461H151.431C151.539 19.4471 152.985 18.5072 154.612 18.5072Z" fill="white"/>
<path d="M166.777 13.9525V32.5692H173.067V22.7728C173.067 20.4593 174.259 19.0133 176.031 19.0133C177.911 19.0133 178.923 20.1701 178.923 22.339V32.5692H185.213V22.7728C185.213 20.4593 186.478 19.0133 188.177 19.0133C190.057 19.0133 191.069 20.1701 191.069 22.339V32.5692H197.359V21.2184C197.359 16.4106 194.684 13.5187 190.165 13.5187C187.02 13.5187 185.321 14.9285 184.056 16.5552C182.791 14.567 180.766 13.5187 178.019 13.5187C175.814 13.5187 174.043 14.2778 172.777 16.1576V13.9525H166.777Z" fill="white"/>
<path d="M201.619 39.799H207.909V30.7618C209.102 32.4969 211.199 33.003 212.97 33.003C218.176 33.003 221.718 28.7736 221.718 23.2428C221.718 17.4589 217.67 13.5187 213.043 13.5187C211.524 13.5187 208.958 14.0609 207.403 16.4829V13.9525H201.619V39.799ZM207.765 23.3151C207.765 20.6762 209.428 19.0133 211.633 19.0133C213.693 19.0133 215.392 20.7123 215.392 23.3151C215.392 25.9178 213.693 27.5083 211.633 27.5083C209.428 27.5083 207.765 25.9178 207.765 23.3151Z" fill="white"/>
<path d="M224.666 27.0023C224.666 30.9064 226.908 33.003 230.812 33.003C232.077 33.003 233.053 32.7861 233.74 32.4608V27.3999C233.27 27.5806 232.836 27.6168 232.511 27.6168C231.065 27.6168 230.956 26.7131 230.956 25.8455V6.72266H224.666V27.0023Z" fill="white"/>
<path d="M241.516 33.003C243.975 33.003 245.601 31.9185 246.324 30.5087V32.5692H252.144V20.9292C252.144 16.3021 248.963 13.5187 243.577 13.5187C239.926 13.5187 236.926 15.1092 235.335 17.1336L238.625 21.0738C239.601 19.9532 241.119 18.8687 243.252 18.8687C244.806 18.8687 246.144 19.411 246.144 20.9654V21.0015L241.336 21.9414C237.432 22.7728 235.263 24.6526 235.263 27.3999C235.263 30.6895 237.902 33.003 241.516 33.003ZM246.144 24.7972V25.0864C246.144 27.1469 244.987 28.4844 242.999 28.4844C241.878 28.4844 241.263 27.906 241.263 27.0023C241.263 26.0985 241.986 25.6286 243.107 25.3756L246.144 24.7972Z" fill="white"/>
<path d="M254.385 18.8326H256.771V26.2793C256.771 30.6172 259.229 33.003 263.278 33.003C265.121 33.003 266.531 32.6054 267.507 32.1354V26.8215C266.748 27.3638 265.844 27.5083 265.085 27.5083C263.929 27.5083 263.061 26.8215 263.061 25.231V18.8326H267.001V13.9525H263.061V8.92775H256.952V13.9525H254.385V18.8326Z" fill="white"/>
<path d="M286.845 24.761C287.025 24.1826 287.206 23.062 287.206 22.086C287.206 16.989 283.591 13.5187 278.277 13.5187C272.783 13.5187 268.589 17.7843 268.589 23.2789C268.589 28.7736 272.674 33.003 279.036 33.003C282.181 33.003 284.639 32.2077 287.098 30.0026L283.916 26.0262C283.013 26.8938 281.531 27.7614 279.506 27.7614C277.373 27.7614 275.349 26.8577 275.06 24.761H286.845ZM278.133 18.5072C279.759 18.5072 281.025 19.5194 281.133 21.11V21.1461H274.951C275.06 19.4471 276.506 18.5072 278.133 18.5072Z" fill="white"/>
<path d="M296.732 33.003C301.359 33.003 304.468 30.4364 304.468 27.1107C304.468 23.4235 301.612 22.4475 298.684 21.2907C296.045 20.1701 294.925 19.9894 294.925 19.3025C294.925 18.6157 295.756 18.218 296.732 18.218C298.467 18.218 299.443 19.0495 300.058 20.0978L303.962 17.2782C302.805 15.0731 300.094 13.5187 296.913 13.5187C292.72 13.5187 289.213 15.543 289.213 19.2664C289.213 22.2667 291.274 23.7488 294.925 25.0502C297.491 25.9539 298.756 26.2793 298.756 27.2553C298.756 27.9421 298.07 28.3036 296.804 28.3036C294.925 28.3036 293.479 27.1469 292.611 25.6647L288.599 28.7374C290.153 31.4847 293.262 33.003 296.732 33.003Z" fill="white"/>
<path fill-rule="evenodd" clip-rule="evenodd" d="M34.5614 12.4118C37.803 12.4118 40.4309 9.78399 40.4309 6.54235C40.4309 3.30072 37.803 0.672852 34.5614 0.672852C31.3198 0.672852 28.6919 3.30072 28.6919 6.54235C28.6919 9.78399 31.3198 12.4118 34.5614 12.4118Z" fill="white"/>
<path opacity="0.9" fill-rule="evenodd" clip-rule="evenodd" d="M34.5614 26.4952C37.803 26.4952 40.4309 23.8677 40.4309 20.6265C40.4309 17.3853 37.803 14.7578 34.5614 14.7578C31.3198 14.7578 28.6919 17.3853 28.6919 20.6265C28.6919 23.8677 31.3198 26.4952 34.5614 26.4952Z" fill="white"/>
<path opacity="0.8" fill-rule="evenodd" clip-rule="evenodd" d="M34.5614 41.1033C37.803 41.1033 40.4309 38.4754 40.4309 35.2338C40.4309 31.9921 37.803 29.3643 34.5614 29.3643C31.3198 29.3643 28.6919 31.9921 28.6919 35.2338C28.6919 38.4754 31.3198 41.1033 34.5614 41.1033Z" fill="white"/>
<path opacity="0.8" fill-rule="evenodd" clip-rule="evenodd" d="M19.9538 26.4944C23.195 26.4944 25.8225 23.8669 25.8225 20.6257C25.8225 17.3845 23.195 14.757 19.9538 14.757C16.7126 14.757 14.0851 17.3845 14.0851 20.6257C14.0851 23.8669 16.7126 26.4944 19.9538 26.4944Z" fill="white"/>
<path opacity="0.7" fill-rule="evenodd" clip-rule="evenodd" d="M19.9533 41.1024C23.1945 41.1024 25.822 38.4745 25.822 35.2329C25.822 31.9913 23.1945 29.3634 19.9533 29.3634C16.7121 29.3634 14.0846 31.9913 14.0846 35.2329C14.0846 38.4745 16.7121 41.1024 19.9533 41.1024Z" fill="white"/>
<g opacity="0.6">
<path fill-rule="evenodd" clip-rule="evenodd" d="M5.8695 41.1031C9.11113 41.1031 11.739 38.4753 11.739 35.2336C11.739 31.992 9.11113 29.3641 5.8695 29.3641C2.62786 29.3641 0 31.992 0 35.2336C0 38.4753 2.62786 41.1031 5.8695 41.1031Z" fill="white"/>
</g>
</svg>
