<svg width="40" height="40" viewBox="0 0 40 40" fill="none" xmlns="http://www.w3.org/2000/svg">
<rect width="40" height="40" rx="20" fill="white"/>
<path fill-rule="evenodd" clip-rule="evenodd" d="M26.4926 14.7951C27.98 14.7951 29.1857 13.59 29.1857 12.1035C29.1857 10.6169 27.98 9.41187 26.4926 9.41187C25.0053 9.41187 23.7996 10.6169 23.7996 12.1035C23.7996 13.59 25.0053 14.7951 26.4926 14.7951Z" fill="#FF2D33"/>
<path fill-rule="evenodd" clip-rule="evenodd" d="M26.4926 21.8571C27.98 21.8571 29.1857 20.6521 29.1857 19.1655C29.1857 17.6789 27.98 16.4739 26.4926 16.4739C25.0053 16.4739 23.7996 17.6789 23.7996 19.1655C23.7996 20.6521 25.0053 21.8571 26.4926 21.8571Z" fill="#D53D5C"/>
<path fill-rule="evenodd" clip-rule="evenodd" d="M26.4926 28.9189C27.98 28.9189 29.1857 27.7138 29.1857 26.2273C29.1857 24.7407 27.98 23.5356 26.4926 23.5356C25.0053 23.5356 23.7996 24.7407 23.7996 26.2273C23.7996 27.7138 25.0053 28.9189 26.4926 28.9189Z" fill="#815EAD"/>
<path fill-rule="evenodd" clip-rule="evenodd" d="M19.635 21.8571C21.1224 21.8571 22.3281 20.6521 22.3281 19.1655C22.3281 17.6789 21.1224 16.4739 19.635 16.4739C18.1477 16.4739 16.942 17.6789 16.942 19.1655C16.942 20.6521 18.1477 21.8571 19.635 21.8571Z" fill="#AB4D85"/>
<path fill-rule="evenodd" clip-rule="evenodd" d="M19.635 28.9189C21.1224 28.9189 22.3281 27.7138 22.3281 26.2273C22.3281 24.7408 21.1224 23.5356 19.635 23.5356C18.1477 23.5356 16.942 24.7408 16.942 26.2273C16.942 27.7138 18.1477 28.9189 19.635 28.9189Z" fill="#576ED6"/>
<path fill-rule="evenodd" clip-rule="evenodd" d="M12.7771 28.9189C14.2645 28.9189 15.4702 27.7138 15.4702 26.2273C15.4702 24.7407 14.2645 23.5356 12.7771 23.5356C11.2898 23.5356 10.0841 24.7407 10.0841 26.2273C10.0841 27.7138 11.2898 28.9189 12.7771 28.9189Z" fill="#2D7EFF"/>
</svg>
