<svg width="22" height="20" viewBox="0 0 22 20" fill="none" xmlns="http://www.w3.org/2000/svg">
<g clip-path="url(#clip0_112_1847)">
<mask id="path-1-inside-1_112_1847" fill="white">
<path d="M15.5957 2.21188C16.8499 2.28293 18.0258 2.85908 18.8672 3.81477C19.7087 4.77047 20.1474 6.02823 20.0878 7.31398C20.0878 10.3178 17.5574 12.1628 15.1291 14.3756C12.7323 16.5688 11.4414 17.7675 11.0234 18.0442C10.5683 17.7421 8.9787 16.2617 6.91775 14.3756C4.47895 12.154 1.95905 10.2914 1.95905 7.31398C1.89948 6.02823 2.33822 4.77047 3.17965 3.81477C4.02109 2.85908 5.19701 2.28293 6.45117 2.21188C7.14593 2.1903 7.83426 2.35384 8.44888 2.6865C9.06349 3.01916 9.58336 3.50957 9.95766 4.10977C10.7591 5.25867 10.8927 5.83361 11.0263 5.83361C11.1599 5.83361 11.2916 5.25867 12.0854 4.10684C12.4576 3.50385 12.9776 3.01151 13.5936 2.67898C14.2096 2.34646 14.9 2.18539 15.5957 2.21188M15.5957 0.256302C14.7293 0.227874 13.8677 0.400118 13.0753 0.760206C12.2828 1.12029 11.5798 1.65895 11.0187 2.33606C10.458 1.66092 9.75644 1.12351 8.96587 0.763532C8.17529 0.403553 7.3159 0.230208 6.45117 0.256302C4.69065 0.326851 3.02901 1.10892 1.82961 2.43149C0.630212 3.75405 -0.00935644 5.50951 0.05076 7.31398C0.05076 10.8438 2.48383 13.0116 4.8358 15.107C5.10582 15.3475 5.37871 15.59 5.64969 15.8374L6.6296 16.735C7.69828 17.7771 8.81866 18.762 9.98628 19.686C10.2952 19.8909 10.6554 20 11.0234 20C11.3915 20 11.7517 19.8909 12.0606 19.686C13.2654 18.7338 14.4202 17.7172 15.5203 16.6401L16.4 15.8344C16.6796 15.5802 16.963 15.327 17.2445 15.0776C19.4714 13.0976 21.9961 10.8536 21.9961 7.31398C22.0562 5.50951 21.4167 3.75405 20.2173 2.43149C19.0179 1.10892 17.3562 0.326851 15.5957 0.256302V0.256302Z"/>
</mask>
<path d="M20.0878 7.31398L19.0889 7.2677L19.0878 7.29083V7.31398H20.0878ZM15.1291 14.3756L14.4556 13.6364L14.4541 13.6378L15.1291 14.3756ZM11.0234 18.0442L10.4704 18.8774L11.0227 19.2441L11.5755 18.878L11.0234 18.0442ZM6.91775 14.3756L7.59288 13.6379L7.59116 13.6363L6.91775 14.3756ZM1.95905 7.31398H2.95905V7.29083L2.95798 7.2677L1.95905 7.31398ZM6.45117 2.21188L6.42013 1.21236L6.40736 1.21276L6.39461 1.21348L6.45117 2.21188ZM9.95766 4.10977L9.10913 4.63892L9.12276 4.66078L9.1375 4.68191L9.95766 4.10977ZM12.0854 4.10684L12.9088 4.67432L12.9231 4.65354L12.9364 4.63207L12.0854 4.10684ZM11.0187 2.33606L10.2494 2.97494L11.0195 3.90225L11.7886 2.97416L11.0187 2.33606ZM6.45117 0.256302L6.42101 -0.743292L6.41113 -0.742896L6.45117 0.256302ZM0.05076 7.31398H1.05076V7.29733L1.05021 7.28069L0.05076 7.31398ZM4.8358 15.107L4.17059 15.8536L4.17064 15.8537L4.8358 15.107ZM5.64969 15.8374L6.32515 15.1L6.32391 15.0988L5.64969 15.8374ZM6.6296 16.735L7.32774 16.019L7.31657 16.0081L7.30506 15.9976L6.6296 16.735ZM9.98628 19.686L9.36577 20.4701L9.39856 20.4961L9.4334 20.5192L9.98628 19.686ZM12.0606 19.686L12.6135 20.5192L12.6481 20.4963L12.6806 20.4705L12.0606 19.686ZM15.5203 16.6401L14.8449 15.9027L14.8326 15.9139L14.8208 15.9256L15.5203 16.6401ZM16.4 15.8344L15.7273 15.0946L15.7247 15.097L16.4 15.8344ZM17.2445 15.0776L17.9076 15.8262L17.9089 15.825L17.2445 15.0776ZM21.9961 7.31398L20.9967 7.28069L20.9961 7.29733V7.31398H21.9961ZM15.5391 3.21028C16.522 3.26596 17.4494 3.71766 18.1167 4.47559L19.6178 3.15396C18.6022 2.0005 17.1777 1.2999 15.6523 1.21348L15.5391 3.21028ZM18.1167 4.47559C18.7847 5.23435 19.1366 6.2378 19.0889 7.2677L21.0868 7.36027C21.1582 5.81867 20.6326 4.30658 19.6178 3.15396L18.1167 4.47559ZM19.0878 7.31398C19.0878 8.49967 18.6 9.49138 17.7537 10.4978C16.8745 11.5435 15.7284 12.4766 14.4556 13.6364L15.8027 15.1147C16.9582 14.0618 18.2914 12.966 19.2845 11.785C20.3105 10.5648 21.0878 9.13207 21.0878 7.31398H19.0878ZM14.4541 13.6378C13.2521 14.7376 12.3355 15.5808 11.6644 16.186C10.9646 16.8173 10.6028 17.1234 10.4714 17.2105L11.5755 18.878C11.862 18.6883 12.3547 18.2568 13.004 17.6712C13.6821 17.0595 14.6093 16.2067 15.8042 15.1133L14.4541 13.6378ZM11.5765 17.2111C11.4271 17.1119 10.9836 16.7313 10.2434 16.0621C9.53442 15.4211 8.6279 14.5851 7.59288 13.6379L6.24262 15.1133C7.26855 16.0522 8.18732 16.8994 8.90214 17.5457C9.58581 18.1638 10.1646 18.6744 10.4704 18.8774L11.5765 17.2111ZM7.59116 13.6363C6.31617 12.4749 5.16766 11.5329 4.29031 10.4859C3.44389 9.47588 2.95905 8.48608 2.95905 7.31398H0.959052C0.959052 9.11926 1.73416 10.5495 2.75739 11.7705C3.7497 12.9546 5.08053 14.0547 6.24434 15.1148L7.59116 13.6363ZM2.95798 7.2677C2.91026 6.2378 3.26216 5.23435 3.9302 4.47559L2.4291 3.15396C1.41428 4.30659 0.8887 5.81867 0.960123 7.36027L2.95798 7.2677ZM3.9302 4.47559C4.59751 3.71766 5.52483 3.26596 6.50773 3.21028L6.39461 1.21348C4.86919 1.2999 3.44466 2.0005 2.4291 3.15396L3.9302 4.47559ZM6.48221 3.2114C6.99931 3.19534 7.51281 3.31693 7.97288 3.56594L8.92488 1.80705C8.15572 1.39074 7.29255 1.18527 6.42013 1.21236L6.48221 3.2114ZM7.97288 3.56594C8.43313 3.81506 8.82539 4.18392 9.10913 4.63892L10.8062 3.58062C10.3413 2.83521 9.69386 2.22327 8.92488 1.80705L7.97288 3.56594ZM9.1375 4.68191C9.50579 5.20984 9.71772 5.60097 9.85631 5.86596C9.91559 5.97931 9.99542 6.13747 10.062 6.24659C10.0951 6.30092 10.1641 6.41031 10.2685 6.5145C10.368 6.61381 10.6254 6.83361 11.0263 6.83361V4.83361C11.3938 4.83361 11.6178 5.03545 11.6813 5.09883C11.7497 5.16709 11.7801 5.22258 11.7694 5.20506C11.7483 5.17047 11.7196 5.1131 11.6286 4.9391C11.4666 4.62939 11.211 4.1586 10.7778 3.53762L9.1375 4.68191ZM11.0263 6.83361C11.4278 6.83361 11.6854 6.61325 11.7854 6.51306C11.89 6.40826 11.9589 6.2983 11.9919 6.24372C12.0584 6.13389 12.1375 5.9755 12.1964 5.86166C12.334 5.59583 12.5439 5.2038 12.9088 4.67432L11.262 3.53935C10.8331 4.16171 10.5802 4.63306 10.4201 4.94267C10.3301 5.11654 10.3017 5.17387 10.2811 5.20784C10.2706 5.22516 10.3011 5.16911 10.3698 5.10025C10.4339 5.03601 10.6582 4.83361 11.0263 4.83361V6.83361ZM12.9364 4.63207C13.2177 4.17631 13.6089 3.80715 14.0687 3.55895L13.1186 1.79901C12.3464 2.21586 11.6975 2.8314 11.2344 3.5816L12.9364 4.63207ZM14.0687 3.55895C14.5282 3.31085 15.0415 3.19151 15.5577 3.21116L15.6337 1.2126C14.7584 1.17928 13.891 1.38206 13.1186 1.79901L14.0687 3.55895ZM15.6285 -0.74316C14.6077 -0.776652 13.5935 -0.573646 12.6616 -0.150214L13.489 1.67063C14.142 1.37388 14.8508 1.2324 15.5629 1.25576L15.6285 -0.74316ZM12.6616 -0.150214C11.7298 0.273174 10.9055 0.905523 10.2487 1.69796L11.7886 2.97416C12.2542 2.41238 12.8358 1.96742 13.489 1.67063L12.6616 -0.150214ZM11.788 1.69718C11.132 0.907268 10.3095 0.276567 9.38027 -0.146562L8.55147 1.67363C9.20335 1.97045 9.78399 2.41458 10.2494 2.97494L11.788 1.69718ZM9.38027 -0.146562C8.45091 -0.569737 7.43947 -0.773977 6.42101 -0.743243L6.48133 1.25585C7.19232 1.23439 7.89968 1.37684 8.55147 1.67363L9.38027 -0.146562ZM6.41113 -0.742896C4.37857 -0.661446 2.46575 0.241422 1.08885 1.75971L2.57037 3.10326C3.59227 1.97641 5.00272 1.31515 6.49121 1.2555L6.41113 -0.742896ZM1.08885 1.75971C-0.287286 3.27717 -1.01735 5.28636 -0.948685 7.34728L1.05021 7.28069C0.998633 5.73266 1.54771 4.23094 2.57037 3.10326L1.08885 1.75971ZM-0.94924 7.31398C-0.94924 11.3587 1.87959 13.8125 4.17059 15.8536L5.50101 14.3603C3.08808 12.2106 1.05076 10.3289 1.05076 7.31398H-0.94924ZM4.17064 15.8537C4.44233 16.0957 4.71001 16.3336 4.97547 16.5759L6.32391 15.0988C6.04741 14.8464 5.76932 14.5993 5.50096 14.3603L4.17064 15.8537ZM4.97422 16.5748L5.95413 17.4724L7.30506 15.9976L6.32515 15.1L4.97422 16.5748ZM5.93145 17.4509C7.02475 18.517 8.17104 19.5248 9.36577 20.4701L10.6068 18.9018C9.46628 17.9993 8.3718 17.0371 7.32774 16.019L5.93145 17.4509ZM9.4334 20.5192C9.90493 20.8321 10.4572 21 11.0234 21V19C10.8536 19 10.6855 18.9498 10.5392 18.8527L9.4334 20.5192ZM11.0234 21C11.5897 21 12.1419 20.8321 12.6135 20.5192L11.5077 18.8527C11.3614 18.9498 11.1932 19 11.0234 19V21ZM12.6806 20.4705C13.9132 19.4964 15.0946 18.4564 16.2199 17.3547L14.8208 15.9256C13.7459 16.9779 12.6176 17.9712 11.4406 18.9014L12.6806 20.4705ZM16.1957 17.3776L17.0754 16.5719L15.7247 15.097L14.8449 15.9027L16.1957 17.3776ZM17.0728 16.5743C17.3482 16.3239 17.6282 16.0737 17.9076 15.8262L16.5814 14.3291C16.2978 14.5803 16.011 14.8366 15.7273 15.0946L17.0728 16.5743ZM17.9089 15.825C20.0735 13.9005 22.9961 11.3698 22.9961 7.31398H20.9961C20.9961 10.3374 18.8694 12.2948 16.58 14.3303L17.9089 15.825ZM22.9956 7.34728C23.0642 5.28636 22.3342 3.27717 20.958 1.75971L19.4765 3.10326C20.4992 4.23094 21.0482 5.73266 20.9967 7.28069L22.9956 7.34728ZM20.958 1.75971C19.5811 0.241422 17.6683 -0.661446 15.6357 -0.742896L15.5557 1.2555C17.0442 1.31515 18.4546 1.97641 19.4765 3.10326L20.958 1.75971Z" fill="#9291A5" mask="url(#path-1-inside-1_112_1847)"/>
</g>
<defs>
<clipPath id="clip0_112_1847">
<rect width="22" height="20" fill="white"/>
</clipPath>
</defs>
</svg>
