<svg width="18" height="18" viewBox="0 0 18 18" fill="none" xmlns="http://www.w3.org/2000/svg">
<g clip-path="url(#clip0_109_1900)">
<path d="M17.3881 7.61024C16.9896 7.20966 16.5934 6.80908 16.19 6.41473C16.0969 6.32959 16.0235 6.22516 15.9751 6.10875C15.9267 5.99234 15.9044 5.86677 15.9098 5.74086C15.9219 5.12575 15.9236 4.50974 15.9098 3.89463C15.8992 3.45293 15.7294 3.02982 15.4315 2.70284C15.1337 2.37586 14.7276 2.16691 14.2878 2.11427C13.6221 2.03593 12.9515 2.08712 12.2835 2.08845C12.1506 2.0932 12.0182 2.06893 11.8957 2.01735C11.7731 1.96576 11.6633 1.8881 11.574 1.7898C11.1756 1.37898 10.7682 0.978395 10.3603 0.577814C10.0565 0.277823 9.69773 0.0793129 9.26758 0.0263472C8.73883 -0.0626709 8.26407 0.0766424 7.85534 0.402449C7.33194 0.819053 6.89243 1.32601 6.42124 1.7987C6.22357 1.99721 6.0143 2.09201 5.7314 2.08489C5.15134 2.0702 4.57127 2.07465 3.9912 2.08489C2.9096 2.09913 2.09483 2.91854 2.08858 3.99388C2.08501 4.58674 2.08099 5.18005 2.08858 5.77424C2.09278 5.89257 2.07127 6.0104 2.02552 6.11965C1.97977 6.22889 1.91086 6.32698 1.82353 6.40716C1.41035 6.81264 1.00251 7.22301 0.59379 7.63339C-0.199118 8.4301 -0.19778 9.56997 0.596913 10.3667C1.01099 10.7821 1.42581 11.1962 1.84138 11.6089C1.92252 11.685 1.98648 11.7775 2.02903 11.8802C2.07157 11.9829 2.09172 12.0934 2.08813 12.2045C2.08055 12.7898 2.08412 13.3755 2.08813 13.9608C2.09215 15.094 2.90246 15.9045 4.03939 15.9121C4.58198 15.9161 5.12501 15.9299 5.66626 15.9072C6.00136 15.8929 6.24052 16.01 6.46943 16.2437C6.93214 16.7137 7.36452 17.2193 7.89015 17.6212C8.29173 17.927 8.75489 18.0663 9.26758 17.9697C9.24133 17.9742 9.21478 17.9767 9.18816 17.9773C9.21477 17.9764 9.2413 17.9739 9.26758 17.9697C9.5948 17.9327 9.90374 17.8 10.1555 17.5883C10.67 17.1494 11.1225 16.646 11.6026 16.1711C11.7811 15.9931 11.9783 15.9041 12.2362 15.9076C12.8082 15.9187 13.3807 15.9138 13.9532 15.9103C15.0982 15.9027 15.9018 15.1033 15.9102 13.963C15.9143 13.392 15.9201 12.8209 15.9071 12.2503C15.902 12.1247 15.9245 11.9994 15.973 11.8834C16.0216 11.7674 16.095 11.6633 16.1882 11.5787C16.5898 11.1839 16.9874 10.7824 17.3867 10.3836C18.2042 9.56508 18.2042 8.42609 17.3881 7.61024Z" fill="#2C96FF"/>
<path d="M13.4188 6.88597C13.4351 7.13574 13.3268 7.37319 13.1469 7.57889C11.9184 8.98352 10.6883 10.3866 9.45665 11.788C9.0108 12.2939 8.43556 12.3463 7.90412 11.9266C7.02078 11.2297 6.14459 10.5233 5.26841 9.81727C5.06806 9.65375 4.93448 9.42286 4.89278 9.168C4.85108 8.91315 4.90413 8.65188 5.04195 8.43329C5.17978 8.21471 5.39289 8.05386 5.64124 7.98098C5.88959 7.9081 6.15608 7.92821 6.39061 8.03752C6.59363 8.12965 6.75486 8.27816 6.92563 8.41317C7.35158 8.7495 7.77315 9.09139 8.19632 9.4313C8.42601 9.61555 8.51996 9.61396 8.71382 9.39159C9.59704 8.38802 10.4777 7.38206 11.3559 6.37372C11.6274 6.06201 11.9045 5.78286 12.3642 5.79199C12.9618 5.8043 13.4204 6.25817 13.4188 6.88597Z" fill="#F8FAFB"/>
</g>
<defs>
<clipPath id="clip0_109_1900">
<rect width="18" height="18" fill="white"/>
</clipPath>
</defs>
</svg>
